{"accessors":[{"bufferView":1,"componentType":5126,"count":59094,"max":[29,-5,-85.01000213623047],"min":[-53.0015983581543,-100,-86],"type":"VEC3"},{"bufferView":1,"byteOffset":709128,"componentType":5126,"count":59094,"max":[1,1,1],"min":[-1,-1,-1],"type":"VEC3"},{"bufferView":0,"componentType":5125,"count":161871,"type":"SCALAR"}],"asset":{"extras":{"author":"Not Cockatiel Slayer (https://sketchfab.com/Not-Cockatiel-Slayer)","license":"CC-BY-4.0 (http://creativecommons.org/licenses/by/4.0/)","source":"https://sketchfab.com/3d-models/its-almost-ramadan-873359f1781b4d69866e7198330c6e3b","title":"Its Almost Ramadan!"},"generator":"Sketchfab-10.62.0","version":"2.0"},"bufferViews":[{"buffer":0,"byteLength":647484,"name":"floatBufferViews","target":34963},{"buffer":0,"byteLength":1418256,"byteOffset":647484,"byteStride":12,"name":"floatBufferViews","target":34962}],"buffers":[{"byteLength":2065740,"uri":"data:application/octet-stream;base64,"}],"extensionsUsed":["KHR_materials_unlit"],"materials":[{"doubleSided":true,"extensions":{"KHR_materials_unlit":{}},"name":"color_16448250","pbrMetallicRoughness":{"baseColorFactor":[0.980392,0.980392,0.980392,1],"metallicFactor":0}}],"meshes":[{"name":"Object_0","primitives":[{"attributes":{"NORMAL":1,"POSITION":0},"indices":2,"material":0,"mode":4}]}],"nodes":[{"children":[1],"matrix":[-1,1.1102230246251564e-16,4.9789963141979736e-17,0,-1.1102230246251565e-16,-1,-4.440892098500626e-16,0,4.978996314197971e-17,-4.440892098500626e-16,1,0,-24.00156593322754,-138.00512695312503,138.00512695312497,1],"name":"Sketchfab_model"},{"children":[2],"name":"tinker.obj.cleaner.materialmerger.gles"},{"mesh":0,"name":"Object_2"}],"scene":0,"scenes":[{"name":"Sketchfab_Scene","nodes":[0]}]}